<?xml version="1.0" encoding="UTF-8" standalone="no"?>
<svg
   xmlns:dc="http://purl.org/dc/elements/1.1/"
   xmlns:cc="http://creativecommons.org/ns#"
   xmlns:rdf="http://www.w3.org/1999/02/22-rdf-syntax-ns#"
   xmlns:svg="http://www.w3.org/2000/svg"
   xmlns="http://www.w3.org/2000/svg"
   xmlns:sodipodi="http://sodipodi.sourceforge.net/DTD/sodipodi-0.dtd"
   xmlns:inkscape="http://www.inkscape.org/namespaces/inkscape"
   width="210mm"
   height="297mm"
   viewBox="0 0 210 297"
   version="1.1"
   id="svg8"
   inkscape:version="1.0.2 (e86c870879, 2021-01-15, custom)"
   sodipodi:docname="submarine.svg">
  <defs
     id="defs2" />
  <sodipodi:namedview
     id="base"
     pagecolor="#ffffff"
     bordercolor="#666666"
     borderopacity="1.0"
     inkscape:pageopacity="0.0"
     inkscape:pageshadow="2"
     inkscape:zoom="7.9195959"
     inkscape:cx="354.28054"
     inkscape:cy="551.87297"
     inkscape:document-units="mm"
     inkscape:current-layer="layer1"
     inkscape:document-rotation="0"
     showgrid="true"
     inkscape:window-width="2560"
     inkscape:window-height="1017"
     inkscape:window-x="-8"
     inkscape:window-y="-8"
     inkscape:window-maximized="1"
     inkscape:snap-grids="true"
     inkscape:snap-smooth-nodes="true">
    <inkscape:grid
       type="xygrid"
       id="grid12" />
  </sodipodi:namedview>
  <metadata
     id="metadata5">
    <rdf:RDF>
      <cc:Work
         rdf:about="">
        <dc:format>image/svg+xml</dc:format>
        <dc:type
           rdf:resource="http://purl.org/dc/dcmitype/StillImage" />
        <dc:title></dc:title>
      </cc:Work>
    </rdf:RDF>
  </metadata>
  <g
     inkscape:label="Layer 1"
     inkscape:groupmode="layer"
     id="layer1">
    <path
       style="fill:#ffff00;fill-opacity:1;stroke:#bd7c00;stroke-width:0.264583px;stroke-linecap:butt;stroke-linejoin:miter;stroke-opacity:1"
       d="m 79.375,146.84375 h 9.260417 l 0,-5.29167 c 0,-1.32292 1.322916,-2.64583 2.645833,-2.64583 1.058333,0 5.164004,-0.10564 7.9375,0 1.2905,0.0491 2.64583,1.32291 2.64583,2.64583 l 0,2.64588 c 1e-5,0.79374 0.52917,1.32291 1.32292,1.32291 h 7.9375 c 2.64583,1e-5 5.29167,1.32293 5.29167,4.49793 0,3.43958 -2.64584,4.7625 -5.29167,4.7625 h -31.75 c -2.645833,0 -5.820833,-2.64589 -5.820833,-3.9688 0,-1.32292 3.175,-3.96875 5.820829,-3.96874 z"
       id="path10"
       sodipodi:nodetypes="ccssszccccssccc" />
    <path
       style="fill:#00afef;fill-opacity:1;stroke:#000000;stroke-width:0.264583px;stroke-linecap:butt;stroke-linejoin:miter;stroke-opacity:1"
       d="m 84.666667,148.43125 c 1.322918,0 2.645835,1.05834 2.645834,2.64583 -10e-7,1.58749 -0.793752,2.64584 -2.645834,2.64584 -1.852082,0 -2.645834,-1.05835 -2.645833,-2.64584 1e-6,-1.58749 1.322915,-2.64583 2.645833,-2.64583 z"
       id="path837"
       sodipodi:nodetypes="zzzzz" />
    <path
       style="fill:#00afef;fill-opacity:1;stroke:#000000;stroke-width:0.264583px;stroke-linecap:butt;stroke-linejoin:miter;stroke-opacity:1"
       d="m 96.572917,141.55208 c 1.322918,0 2.645835,1.05834 2.645834,2.64583 -10e-7,1.58749 -0.793752,2.64584 -2.645834,2.64584 -1.852082,0 -2.645834,-1.05835 -2.645833,-2.64584 1e-6,-1.58749 1.322915,-2.64583 2.645833,-2.64583 z"
       id="path837-6"
       sodipodi:nodetypes="zzzzz" />
    <path
       style="fill:#00afef;fill-opacity:1;stroke:#000000;stroke-width:0.264583px;stroke-linecap:butt;stroke-linejoin:miter;stroke-opacity:1"
       d="m 104.51042,148.16667 c 1.32292,0 2.64583,1.05834 2.64583,2.64583 0,1.58749 -0.79375,2.64584 -2.64583,2.64584 -1.85209,0 -2.64584,-1.05835 -2.64584,-2.64584 0,-1.58749 1.32292,-2.64583 2.64584,-2.64583 z"
       id="path837-6-9"
       sodipodi:nodetypes="zzzzz" />
    <path
       style="fill:#bd7c00;fill-opacity:1;stroke:#bd7c00;stroke-width:0.265;stroke-linecap:butt;stroke-linejoin:miter;stroke-miterlimit:4;stroke-dasharray:none;stroke-opacity:1"
       d="m 96.572917,138.64167 -10e-7,-1.58751 c 2e-6,-0.26458 0.264585,-0.52916 0.529167,-0.52916 h 0.79375 l 1.322918,0.79375 v -2.38125 l -1.322918,0.79375 H 96.8375 c -0.793749,0 -0.793749,0 -0.79375,0.79375 l 0,2.11667 z"
       id="path879"
       sodipodi:nodetypes="ccccccccccc" />
    <path
       style="fill:#bd7c00;stroke:#bd7c00;stroke-width:0.264583px;stroke-linecap:butt;stroke-linejoin:miter;stroke-opacity:1;fill-opacity:1"
       d="m 94.985415,138.64166 v -5.55625 h -0.264583 v 2.38125 h -0.529167 v 3.175 z"
       id="path881" />
  </g>
</svg>
